<svg xmlns="http://www.w3.org/2000/svg" viewBox="0 0 96 96" role="img" aria-label="Escudo Arsenal">
  <defs>
    <linearGradient id="arsenalRed" x1="0" x2="1" y1="0" y2="1">
      <stop offset="0" stop-color="#ef2f2f"/>
      <stop offset="1" stop-color="#9f1018"/>
    </linearGradient>
  </defs>
  <path d="M48 5 82 16v28c0 22-13 38-34 47C27 82 14 66 14 44V16L48 5Z" fill="#f7d15a"/>
  <path d="M48 10 76 19v25c0 18-10 32-28 40-18-8-28-22-28-40V19l28-9Z" fill="url(#arsenalRed)"/>
  <path d="M25 37h43c5 0 9 4 9 9s-4 9-9 9H25v-8h43a1 1 0 0 0 0-2H25v-8Z" fill="#f7d15a"/>
  <circle cx="27" cy="46" r="7" fill="#f7d15a"/>
  <circle cx="27" cy="46" r="3" fill="#12315f"/>
  <path d="M30 27h36v7H30z" fill="#ffffff" opacity=".92"/>
  <text x="48" y="32.5" text-anchor="middle" font-family="Arial, Helvetica, sans-serif" font-size="8" font-weight="700" fill="#9f1018">ARSENAL</text>
  <path d="M22 20 48 12l26 8v8H22v-8Z" fill="#12315f" opacity=".95"/>
  <path d="M48 5 82 16v28c0 22-13 38-34 47C27 82 14 66 14 44V16L48 5Z" fill="none" stroke="#ffffff" stroke-width="3" opacity=".85"/>
</svg>
